<svg xmlns="http://www.w3.org/2000/svg" fill="#1F1A14" viewBox="-4 -4.5 32 32"><desc>A red heart, boxed in with lines.</desc><rect x="-4" y="-4.5" width="32" height="32" fill="#FAF8F7"/><rect x="-4" y="-4.5" width="3" height="32"/><rect y="-4" width="24" height="3"/><g transform="rotate(270 12 12)"><path d="m 4,12 c 5,4 7,9 11,9 c 2,0 6,0 6,-4 q 0,-3 -4,-5 q 4,-2 4,-5 c 0,-4 -4,-4 -6,-4 c -3,0 -6,5 -11,9" fill="#B01C1C" stroke="#B01C1C" stroke-linecap="round"/><path d="m 0,12 c 6,-4 9,-12 15,-12 c 3,0 9,0 9,6 q 0,3 -3,6 q 3,3 3,6 c 0 6 -6 6 -9 6 c -6,0 -9,-8 -15,-12 h 4 c 5,4 7,9 11,9 c 2,0 6,0 6,-4 q 0,-3 -4,-5 q 4,-2 4,-5 c 0,-4 -4,-4 -6,-4 c -3,0 -6,5 -11,9"/></g><rect y="24" width="24" height="3"/><rect x="25" y="-4.5" width="3" height="32"/></svg>
