<svg id="svg" xmlns="http://www.w3.org/2000/svg" fill="currentColor" viewBox="-1 -4 84 32"><defs><rect id="_" x="-1" width="84" height="3"/><g id="K"><rect id="I" width="3" height="24"/><path d="m 3,12 l 9,-12 h 3 l -9,12 9,12 h -3 z"/></g><g id="O" transform="rotate(270,12 12)"><path id="B" d="m 0,12 c 6,-4 9,-12 15,-12 c 3,0 9,0 9,6 q 0,3 -3,6 q 3,3 3,6 c 0 6 -6 6 -9 6 c -6,0 -9,-8 -15,-12 h 4 c 5,4 7,9 11,9 c 2,0 6,0 6,-4 q 0,-3 -4,-5 q 4,-2 4,-5 c 0,-4 -4,-4 -6,-4 c -3,0 -6,5 -11,9"/></g><g id="o" transform="rotate(270 12 12)"><path id="b" d="m 4,12 c 5,4 7,9 11,9 c 2,0 6,0 6,-4 q 0,-3 -4,-5 q 4,-2 4,-5 c 0,-4 -4,-4 -6,-4 c -3,0 -6,5 -11,9"/></g><path id="G" d="m 0,0 c 3,0 9,0 9,6 q 0,3 -3,6 q 3,3 3,6 c 0 6 -6 6 -9 6 v -3 c 2,0 6,0 6,-4 q 0,-3 -4,-5 q 4,-2 4,-5 c 0,-4 -4,-4 -6,-4"/></defs><use y="-4" href="#_"/><g id="text"><desc>KIBIGO</desc><use href="#K"/><use x="16" href="#I"/><use x="19" href="#B"/><use x="44" href="#I"/><use x="48" href="#G"/><use x="58" href="#O"/></g><use y="25" href="#_"/></svg>
